<mxfile host="Electron" agent="Mozilla/5.0 (Windows NT 10.0; Win64; x64) AppleWebKit/537.36 (KHTML, like Gecko) draw.io/24.7.17 Chrome/128.0.6613.36 Electron/32.0.1 Safari/537.36" version="24.7.17">
  <diagram name="Pagina-1" id="7rhekfLX3t5TjDQRWtSM">
    <mxGraphModel dx="1877" dy="629" grid="1" gridSize="10" guides="1" tooltips="1" connect="1" arrows="1" fold="1" page="1" pageScale="1" pageWidth="827" pageHeight="1169" math="0" shadow="0">
      <root>
        <mxCell id="0" />
        <mxCell id="1" parent="0" />
        <mxCell id="U9-VL0cKPkFCuzFNRjqI-7" style="edgeStyle=orthogonalEdgeStyle;rounded=0;orthogonalLoop=1;jettySize=auto;html=1;exitX=1;exitY=0.5;exitDx=0;exitDy=0;entryX=0;entryY=0.5;entryDx=0;entryDy=0;endArrow=doubleBlock;endFill=1;" edge="1" parent="1" source="U9-VL0cKPkFCuzFNRjqI-3" target="U9-VL0cKPkFCuzFNRjqI-6">
          <mxGeometry relative="1" as="geometry" />
        </mxCell>
        <mxCell id="U9-VL0cKPkFCuzFNRjqI-25" style="edgeStyle=orthogonalEdgeStyle;rounded=0;orthogonalLoop=1;jettySize=auto;html=1;exitX=0.5;exitY=1;exitDx=0;exitDy=0;entryX=0;entryY=0.5;entryDx=0;entryDy=0;" edge="1" parent="1" source="U9-VL0cKPkFCuzFNRjqI-3" target="U9-VL0cKPkFCuzFNRjqI-11">
          <mxGeometry relative="1" as="geometry" />
        </mxCell>
        <mxCell id="U9-VL0cKPkFCuzFNRjqI-26" style="edgeStyle=orthogonalEdgeStyle;rounded=0;orthogonalLoop=1;jettySize=auto;html=1;exitX=0.5;exitY=1;exitDx=0;exitDy=0;entryX=0;entryY=0.5;entryDx=0;entryDy=0;" edge="1" parent="1" source="U9-VL0cKPkFCuzFNRjqI-3" target="U9-VL0cKPkFCuzFNRjqI-13">
          <mxGeometry relative="1" as="geometry" />
        </mxCell>
        <mxCell id="U9-VL0cKPkFCuzFNRjqI-27" style="edgeStyle=orthogonalEdgeStyle;rounded=0;orthogonalLoop=1;jettySize=auto;html=1;exitX=0.5;exitY=1;exitDx=0;exitDy=0;entryX=0;entryY=0.5;entryDx=0;entryDy=0;" edge="1" parent="1" source="U9-VL0cKPkFCuzFNRjqI-3" target="U9-VL0cKPkFCuzFNRjqI-17">
          <mxGeometry relative="1" as="geometry" />
        </mxCell>
        <mxCell id="U9-VL0cKPkFCuzFNRjqI-28" style="edgeStyle=orthogonalEdgeStyle;rounded=0;orthogonalLoop=1;jettySize=auto;html=1;exitX=0.5;exitY=1;exitDx=0;exitDy=0;entryX=0;entryY=0.5;entryDx=0;entryDy=0;" edge="1" parent="1" source="U9-VL0cKPkFCuzFNRjqI-3" target="U9-VL0cKPkFCuzFNRjqI-19">
          <mxGeometry relative="1" as="geometry" />
        </mxCell>
        <mxCell id="U9-VL0cKPkFCuzFNRjqI-29" style="edgeStyle=orthogonalEdgeStyle;rounded=0;orthogonalLoop=1;jettySize=auto;html=1;exitX=0.5;exitY=1;exitDx=0;exitDy=0;entryX=0;entryY=0.5;entryDx=0;entryDy=0;" edge="1" parent="1" source="U9-VL0cKPkFCuzFNRjqI-3" target="U9-VL0cKPkFCuzFNRjqI-21">
          <mxGeometry relative="1" as="geometry" />
        </mxCell>
        <mxCell id="U9-VL0cKPkFCuzFNRjqI-30" style="edgeStyle=orthogonalEdgeStyle;rounded=0;orthogonalLoop=1;jettySize=auto;html=1;exitX=0.5;exitY=1;exitDx=0;exitDy=0;entryX=0;entryY=0.5;entryDx=0;entryDy=0;" edge="1" parent="1" source="U9-VL0cKPkFCuzFNRjqI-3" target="U9-VL0cKPkFCuzFNRjqI-23">
          <mxGeometry relative="1" as="geometry" />
        </mxCell>
        <mxCell id="U9-VL0cKPkFCuzFNRjqI-3" value="Corso" style="rounded=0;whiteSpace=wrap;html=1;" vertex="1" parent="1">
          <mxGeometry x="-610" y="230" width="120" height="60" as="geometry" />
        </mxCell>
        <mxCell id="U9-VL0cKPkFCuzFNRjqI-8" style="edgeStyle=orthogonalEdgeStyle;rounded=0;orthogonalLoop=1;jettySize=auto;html=1;exitX=0;exitY=0.5;exitDx=0;exitDy=0;entryX=1;entryY=0.5;entryDx=0;entryDy=0;" edge="1" parent="1" source="U9-VL0cKPkFCuzFNRjqI-4" target="U9-VL0cKPkFCuzFNRjqI-6">
          <mxGeometry relative="1" as="geometry" />
        </mxCell>
        <mxCell id="U9-VL0cKPkFCuzFNRjqI-39" style="edgeStyle=orthogonalEdgeStyle;rounded=0;orthogonalLoop=1;jettySize=auto;html=1;exitX=0.5;exitY=1;exitDx=0;exitDy=0;entryX=0;entryY=0.5;entryDx=0;entryDy=0;" edge="1" parent="1" source="U9-VL0cKPkFCuzFNRjqI-4" target="U9-VL0cKPkFCuzFNRjqI-31">
          <mxGeometry relative="1" as="geometry" />
        </mxCell>
        <mxCell id="U9-VL0cKPkFCuzFNRjqI-40" style="edgeStyle=orthogonalEdgeStyle;rounded=0;orthogonalLoop=1;jettySize=auto;html=1;exitX=0.5;exitY=1;exitDx=0;exitDy=0;entryX=0;entryY=0.5;entryDx=0;entryDy=0;" edge="1" parent="1" source="U9-VL0cKPkFCuzFNRjqI-4" target="U9-VL0cKPkFCuzFNRjqI-33">
          <mxGeometry relative="1" as="geometry" />
        </mxCell>
        <mxCell id="U9-VL0cKPkFCuzFNRjqI-41" style="edgeStyle=orthogonalEdgeStyle;rounded=0;orthogonalLoop=1;jettySize=auto;html=1;exitX=0.5;exitY=1;exitDx=0;exitDy=0;entryX=0;entryY=0.5;entryDx=0;entryDy=0;" edge="1" parent="1" source="U9-VL0cKPkFCuzFNRjqI-4" target="U9-VL0cKPkFCuzFNRjqI-35">
          <mxGeometry relative="1" as="geometry" />
        </mxCell>
        <mxCell id="U9-VL0cKPkFCuzFNRjqI-42" style="edgeStyle=orthogonalEdgeStyle;rounded=0;orthogonalLoop=1;jettySize=auto;html=1;exitX=0.5;exitY=1;exitDx=0;exitDy=0;entryX=0;entryY=0.5;entryDx=0;entryDy=0;" edge="1" parent="1" source="U9-VL0cKPkFCuzFNRjqI-4" target="U9-VL0cKPkFCuzFNRjqI-37">
          <mxGeometry relative="1" as="geometry" />
        </mxCell>
        <mxCell id="U9-VL0cKPkFCuzFNRjqI-46" style="edgeStyle=orthogonalEdgeStyle;rounded=0;orthogonalLoop=1;jettySize=auto;html=1;exitX=0.5;exitY=1;exitDx=0;exitDy=0;entryX=0;entryY=0.5;entryDx=0;entryDy=0;" edge="1" parent="1" source="U9-VL0cKPkFCuzFNRjqI-4" target="U9-VL0cKPkFCuzFNRjqI-43">
          <mxGeometry relative="1" as="geometry" />
        </mxCell>
        <mxCell id="U9-VL0cKPkFCuzFNRjqI-50" style="edgeStyle=orthogonalEdgeStyle;rounded=0;orthogonalLoop=1;jettySize=auto;html=1;exitX=0.5;exitY=1;exitDx=0;exitDy=0;entryX=0;entryY=0.5;entryDx=0;entryDy=0;" edge="1" parent="1" source="U9-VL0cKPkFCuzFNRjqI-4" target="U9-VL0cKPkFCuzFNRjqI-48">
          <mxGeometry relative="1" as="geometry" />
        </mxCell>
        <mxCell id="U9-VL0cKPkFCuzFNRjqI-4" value="Iscrizione" style="rounded=0;whiteSpace=wrap;html=1;" vertex="1" parent="1">
          <mxGeometry x="-250" y="230" width="120" height="60" as="geometry" />
        </mxCell>
        <mxCell id="U9-VL0cKPkFCuzFNRjqI-6" value="Appartiene" style="rhombus;whiteSpace=wrap;html=1;" vertex="1" parent="1">
          <mxGeometry x="-400" y="220" width="80" height="80" as="geometry" />
        </mxCell>
        <mxCell id="U9-VL0cKPkFCuzFNRjqI-9" value="" style="endArrow=none;html=1;rounded=0;" edge="1" parent="1">
          <mxGeometry width="50" height="50" relative="1" as="geometry">
            <mxPoint x="-470" y="285" as="sourcePoint" />
            <mxPoint x="-470" y="235" as="targetPoint" />
          </mxGeometry>
        </mxCell>
        <mxCell id="U9-VL0cKPkFCuzFNRjqI-11" value="" style="ellipse;whiteSpace=wrap;html=1;aspect=fixed;" vertex="1" parent="1">
          <mxGeometry x="-530" y="320" width="20" height="20" as="geometry" />
        </mxCell>
        <mxCell id="U9-VL0cKPkFCuzFNRjqI-12" value="IdCorso" style="text;html=1;align=left;verticalAlign=middle;whiteSpace=wrap;rounded=0;" vertex="1" parent="1">
          <mxGeometry x="-500" y="315" width="60" height="30" as="geometry" />
        </mxCell>
        <mxCell id="U9-VL0cKPkFCuzFNRjqI-13" value="" style="ellipse;whiteSpace=wrap;html=1;aspect=fixed;" vertex="1" parent="1">
          <mxGeometry x="-530" y="350" width="20" height="20" as="geometry" />
        </mxCell>
        <mxCell id="U9-VL0cKPkFCuzFNRjqI-14" value="CodiceCorso" style="text;html=1;align=left;verticalAlign=middle;whiteSpace=wrap;rounded=0;" vertex="1" parent="1">
          <mxGeometry x="-500" y="345" width="60" height="30" as="geometry" />
        </mxCell>
        <mxCell id="U9-VL0cKPkFCuzFNRjqI-17" value="" style="ellipse;whiteSpace=wrap;html=1;aspect=fixed;" vertex="1" parent="1">
          <mxGeometry x="-530" y="385" width="20" height="20" as="geometry" />
        </mxCell>
        <mxCell id="U9-VL0cKPkFCuzFNRjqI-18" value="NomeCorso" style="text;html=1;align=left;verticalAlign=middle;whiteSpace=wrap;rounded=0;" vertex="1" parent="1">
          <mxGeometry x="-500" y="380" width="60" height="30" as="geometry" />
        </mxCell>
        <mxCell id="U9-VL0cKPkFCuzFNRjqI-19" value="" style="ellipse;whiteSpace=wrap;html=1;aspect=fixed;" vertex="1" parent="1">
          <mxGeometry x="-530" y="415" width="20" height="20" as="geometry" />
        </mxCell>
        <mxCell id="U9-VL0cKPkFCuzFNRjqI-20" value="Descrizione" style="text;html=1;align=left;verticalAlign=middle;whiteSpace=wrap;rounded=0;" vertex="1" parent="1">
          <mxGeometry x="-500" y="410" width="60" height="30" as="geometry" />
        </mxCell>
        <mxCell id="U9-VL0cKPkFCuzFNRjqI-21" value="" style="ellipse;whiteSpace=wrap;html=1;aspect=fixed;" vertex="1" parent="1">
          <mxGeometry x="-530" y="445" width="20" height="20" as="geometry" />
        </mxCell>
        <mxCell id="U9-VL0cKPkFCuzFNRjqI-22" value="Prezzo" style="text;html=1;align=left;verticalAlign=middle;whiteSpace=wrap;rounded=0;" vertex="1" parent="1">
          <mxGeometry x="-500" y="440" width="60" height="30" as="geometry" />
        </mxCell>
        <mxCell id="U9-VL0cKPkFCuzFNRjqI-23" value="" style="ellipse;whiteSpace=wrap;html=1;aspect=fixed;" vertex="1" parent="1">
          <mxGeometry x="-530" y="475" width="20" height="20" as="geometry" />
        </mxCell>
        <mxCell id="U9-VL0cKPkFCuzFNRjqI-24" value="MaxIscritti" style="text;html=1;align=left;verticalAlign=middle;whiteSpace=wrap;rounded=0;" vertex="1" parent="1">
          <mxGeometry x="-500" y="470" width="60" height="30" as="geometry" />
        </mxCell>
        <mxCell id="U9-VL0cKPkFCuzFNRjqI-31" value="" style="ellipse;whiteSpace=wrap;html=1;aspect=fixed;" vertex="1" parent="1">
          <mxGeometry x="-160" y="320" width="20" height="20" as="geometry" />
        </mxCell>
        <mxCell id="U9-VL0cKPkFCuzFNRjqI-32" value="IdIscrizione" style="text;html=1;align=left;verticalAlign=middle;whiteSpace=wrap;rounded=0;" vertex="1" parent="1">
          <mxGeometry x="-130" y="315" width="60" height="30" as="geometry" />
        </mxCell>
        <mxCell id="U9-VL0cKPkFCuzFNRjqI-33" value="" style="ellipse;whiteSpace=wrap;html=1;aspect=fixed;" vertex="1" parent="1">
          <mxGeometry x="-160" y="350" width="20" height="20" as="geometry" />
        </mxCell>
        <mxCell id="U9-VL0cKPkFCuzFNRjqI-34" value="Nominativo" style="text;html=1;align=left;verticalAlign=middle;whiteSpace=wrap;rounded=0;" vertex="1" parent="1">
          <mxGeometry x="-130" y="345" width="60" height="30" as="geometry" />
        </mxCell>
        <mxCell id="U9-VL0cKPkFCuzFNRjqI-35" value="" style="ellipse;whiteSpace=wrap;html=1;aspect=fixed;" vertex="1" parent="1">
          <mxGeometry x="-160" y="385" width="20" height="20" as="geometry" />
        </mxCell>
        <mxCell id="U9-VL0cKPkFCuzFNRjqI-36" value="Email" style="text;html=1;align=left;verticalAlign=middle;whiteSpace=wrap;rounded=0;" vertex="1" parent="1">
          <mxGeometry x="-130" y="380" width="60" height="30" as="geometry" />
        </mxCell>
        <mxCell id="U9-VL0cKPkFCuzFNRjqI-37" value="" style="ellipse;whiteSpace=wrap;html=1;aspect=fixed;" vertex="1" parent="1">
          <mxGeometry x="-160" y="420" width="20" height="20" as="geometry" />
        </mxCell>
        <mxCell id="U9-VL0cKPkFCuzFNRjqI-38" value="StatoIscrizione" style="text;html=1;align=left;verticalAlign=middle;whiteSpace=wrap;rounded=0;" vertex="1" parent="1">
          <mxGeometry x="-130" y="415" width="60" height="30" as="geometry" />
        </mxCell>
        <mxCell id="U9-VL0cKPkFCuzFNRjqI-43" value="" style="ellipse;whiteSpace=wrap;html=1;aspect=fixed;" vertex="1" parent="1">
          <mxGeometry x="-160" y="450" width="20" height="20" as="geometry" />
        </mxCell>
        <mxCell id="U9-VL0cKPkFCuzFNRjqI-44" value="CodIscrizione" style="text;html=1;align=left;verticalAlign=middle;whiteSpace=wrap;rounded=0;" vertex="1" parent="1">
          <mxGeometry x="-130" y="445" width="60" height="30" as="geometry" />
        </mxCell>
        <mxCell id="U9-VL0cKPkFCuzFNRjqI-48" value="" style="ellipse;whiteSpace=wrap;html=1;aspect=fixed;" vertex="1" parent="1">
          <mxGeometry x="-160" y="480" width="20" height="20" as="geometry" />
        </mxCell>
        <mxCell id="U9-VL0cKPkFCuzFNRjqI-49" value="CorsoRIF" style="text;html=1;align=left;verticalAlign=middle;whiteSpace=wrap;rounded=0;" vertex="1" parent="1">
          <mxGeometry x="-130" y="475" width="60" height="30" as="geometry" />
        </mxCell>
      </root>
    </mxGraphModel>
  </diagram>
</mxfile>
